<svg xmlns="http://www.w3.org/2000/svg" xmlns:xlink="http://www.w3.org/1999/xlink" width="32" height="32" viewBox="0 0 32 32"><g fill="none"><g filter="url(#svgIDa)"><path fill="url(#svgIDb)" d="M12.008 16.558a3.312 3.312 0 0 0-1.531-6.25a3.314 3.314 0 0 0-3.223 2.542a1.111 1.111 0 0 1-.802.809a3.288 3.288 0 0 0-2.157 4.645a.863.863 0 0 1-.188.998A3.176 3.176 0 0 0 6.25 24.82h5.757v-8.263Z"></path><path fill="url(#svgIDc)" d="M12.008 16.558a3.312 3.312 0 0 0-1.531-6.25a3.314 3.314 0 0 0-3.223 2.542a1.111 1.111 0 0 1-.802.809a3.288 3.288 0 0 0-2.157 4.645a.863.863 0 0 1-.188.998A3.176 3.176 0 0 0 6.25 24.82h5.757v-8.263Z"></path><path fill="url(#svgIDd)" d="M12.008 16.558a3.312 3.312 0 0 0-1.531-6.25a3.314 3.314 0 0 0-3.223 2.542a1.111 1.111 0 0 1-.802.809a3.288 3.288 0 0 0-2.157 4.645a.863.863 0 0 1-.188.998A3.176 3.176 0 0 0 6.25 24.82h5.757v-8.263Z"></path></g><g filter="url(#svgIDe)"><ellipse cx="5.891" cy="21.869" fill="url(#svgIDf)" rx="2.126" ry="2.609" transform="rotate(-27.195 5.89 21.869)"></ellipse></g><g filter="url(#svgIDg)"><ellipse cx="6.831" cy="16.36" fill="url(#svgIDh)" rx="2.112" ry="2.614" transform="rotate(50.517 6.831 16.36)"></ellipse></g><path fill="url(#svgIDi)" d="M10.04 7.632a.35.35 0 0 1 .35-.35h2.284a.35.35 0 0 1 .35.35v8.282h-2.985V7.632Z"></path><path fill="url(#svgIDj)" d="M10.04 7.632a.35.35 0 0 1 .35-.35h2.284a.35.35 0 0 1 .35.35v8.282h-2.985V7.632Z"></path><path fill="url(#svgIDk)" d="M10.04 7.632a.35.35 0 0 1 .35-.35h2.284a.35.35 0 0 1 .35.35v8.282h-2.985V7.632Z"></path><path fill="url(#svgIDl)" d="M10.04 7.632a.35.35 0 0 1 .35-.35h2.284a.35.35 0 0 1 .35.35v8.282h-2.985V7.632Z"></path><path fill="url(#svgIDm)" d="M10.04 7.632a.35.35 0 0 1 .35-.35h2.284a.35.35 0 0 1 .35.35v8.282h-2.985V7.632Z"></path><path fill="url(#svgIDn)" d="M26.93 28.033H8.833v-11.29l9.048-9.03l9.047 9.03v11.29Z"></path><path fill="url(#svgIDo)" d="M26.93 28.033H8.833v-11.29l9.048-9.03l9.047 9.03v11.29Z"></path><path fill="url(#svgIDp)" d="M26.93 28.033H8.833v-11.29l9.048-9.03l9.047 9.03v11.29Z"></path><path fill="url(#svgIDq)" d="M26.93 28.033H8.833v-11.29l9.048-9.03l9.047 9.03v11.29Z"></path><path fill="url(#svgIDr)" d="M26.93 28.033H8.833v-11.29l9.048-9.03l9.047 9.03v11.29Z"></path><path fill="url(#svgIDs)" d="M26.93 28.033H8.833v-11.29l9.048-9.03l9.047 9.03v11.29Z"></path><path fill="url(#svgIDt)" d="M26.93 28.033H8.833v-11.29l9.048-9.03l9.047 9.03v11.29Z"></path><g filter="url(#svgIDu)"><path fill="url(#svgIDv)" d="M16.973 28.032h-5.831v-8.296c0-.632.447-1.151.991-1.151h3.849c.544 0 .99.519.99 1.151v8.296Z"></path></g><g filter="url(#svgIDw)"><path fill="#68552B" d="M10.29 27.434h8.1v.95h-8.1v-.95Z"></path></g><g filter="url(#svgIDx)"><path fill="url(#svgIDy)" d="M24.181 23.184h-3.517a.703.703 0 0 1-.704-.704v-3.518c0-.395.321-.703.704-.703h3.517c.395 0 .704.32.704.703v3.518a.696.696 0 0 1-.704.704Z"></path><path fill="url(#svgIDz)" d="M24.181 23.184h-3.517a.703.703 0 0 1-.704-.704v-3.518c0-.395.321-.703.704-.703h3.517c.395 0 .704.32.704.703v3.518a.696.696 0 0 1-.704.704Z"></path></g><path fill="url(#svgIDA)" d="M24.181 23.184h-3.517a.703.703 0 0 1-.704-.704v-3.518c0-.395.321-.703.704-.703h3.517c.395 0 .704.32.704.703v3.518a.696.696 0 0 1-.704.704Z"></path><path fill="url(#svgIDB)" d="M24.181 23.184h-3.517a.703.703 0 0 1-.704-.704v-3.518c0-.395.321-.703.704-.703h3.517c.395 0 .704.32.704.703v3.518a.696.696 0 0 1-.704.704Z"></path><g filter="url(#svgIDC)"><path fill="url(#svgIDD)" d="M17.973 27.082H11.47v-7.865c0-.6.498-1.091 1.105-1.091h4.292c.607 0 1.106.492 1.106 1.09v7.866Z"></path></g><g filter="url(#svgIDE)"><path fill="#62393D" d="M16.344 23.229a.468.468 0 1 0 0-.937a.468.468 0 0 0 0 .937Z"></path></g><g filter="url(#svgIDF)"><path fill="#895D56" d="M16.466 23.158a.473.473 0 1 0 0-.946a.473.473 0 0 0 0 .946Z"></path></g><path fill="url(#svgIDG)" d="M29.295 16.852L18.595 6.31a1.02 1.02 0 0 0-1.44 0s-.01 0-.01.011L6.42 16.874a.992.992 0 0 0 0 1.417a1.03 1.03 0 0 0 1.44 0l9.833-9.688a.25.25 0 0 1 .351 0l9.8 9.654a1.02 1.02 0 0 0 1.44 0c.396-.397.407-1.02.01-1.405Z"></path><path fill="url(#svgIDH)" d="M10.633 27.832a.75.75 0 0 1 .75-.75h6.6a.75.75 0 0 1 .75.75v.2h-8.1v-.2Z"></path><path fill="url(#svgIDI)" d="M10.633 27.832a.75.75 0 0 1 .75-.75h6.6a.75.75 0 0 1 .75.75v.2h-8.1v-.2Z"></path><path fill="url(#svgIDJ)" d="M10.633 27.832a.75.75 0 0 1 .75-.75h6.6a.75.75 0 0 1 .75.75v.2h-8.1v-.2Z"></path><g filter="url(#svgIDK)"><path fill="#3FD47B" d="M2.076 30.048c0-1.113.902-2.015 2.015-2.015h23.817c1.114 0 2.016.902 2.016 2.015H2.076Z"></path></g><path fill="url(#svgIDL)" d="M2.076 30.048c0-1.113.902-2.015 2.015-2.015h23.817c1.114 0 2.016.902 2.016 2.015H2.076Z"></path><path fill="url(#svgIDM)" d="M2.076 30.048c0-1.113.902-2.015 2.015-2.015h23.817c1.114 0 2.016.902 2.016 2.015H2.076Z"></path><path fill="url(#svgIDN)" d="M2.076 30.048c0-1.113.902-2.015 2.015-2.015h23.817c1.114 0 2.016.902 2.016 2.015H2.076Z"></path><g filter="url(#svgIDO)"><path fill="#2EAD69" d="M25.897 30.048a3.075 3.075 0 0 0 2.036-2.88c0-1.697-1.397-3.072-3.119-3.072a3.129 3.129 0 0 0-2.552 1.305c-.345.483-.844.876-1.342 1.198a2.083 2.083 0 0 0-.96 1.75c0 .7.348 1.32.883 1.7h5.054Z"></path><path fill="url(#svgIDP)" d="M25.897 30.048a3.075 3.075 0 0 0 2.036-2.88c0-1.697-1.397-3.072-3.119-3.072a3.129 3.129 0 0 0-2.552 1.305c-.345.483-.844.876-1.342 1.198a2.083 2.083 0 0 0-.96 1.75c0 .7.348 1.32.883 1.7h5.054Z"></path><path fill="url(#svgIDQ)" d="M25.897 30.048a3.075 3.075 0 0 0 2.036-2.88c0-1.697-1.397-3.072-3.119-3.072a3.129 3.129 0 0 0-2.552 1.305c-.345.483-.844.876-1.342 1.198a2.083 2.083 0 0 0-.96 1.75c0 .7.348 1.32.883 1.7h5.054Z"></path><path fill="url(#svgIDR)" d="M25.897 30.048a3.075 3.075 0 0 0 2.036-2.88c0-1.697-1.397-3.072-3.119-3.072a3.129 3.129 0 0 0-2.552 1.305c-.345.483-.844.876-1.342 1.198a2.083 2.083 0 0 0-.96 1.75c0 .7.348 1.32.883 1.7h5.054Z"></path></g><path fill="url(#svgIDS)" d="M25.897 30.048a3.075 3.075 0 0 0 2.036-2.88c0-1.697-1.397-3.072-3.119-3.072a3.129 3.129 0 0 0-2.552 1.305c-.345.483-.844.876-1.342 1.198a2.083 2.083 0 0 0-.96 1.75c0 .7.348 1.32.883 1.7h5.054Z"></path><g filter="url(#svgIDT)"><path stroke="url(#svgIDU)" stroke-linecap="round" stroke-width=".3" d="m18.041 6.815l10.73 10.566"></path></g><g filter="url(#svgIDV)"><path stroke="url(#svgIDW)" stroke-linecap="round" stroke-opacity=".5" stroke-width=".3" d="M18.041 6.815L7.311 17.381"></path></g><g filter="url(#svgIDX)"><path fill="#31B570" d="M23.223 29.264a5.326 5.326 0 0 1-.994-2.128a.224.224 0 0 0-.294-.168l-.178.067a1.282 1.282 0 0 0 .454 2.482h.896c.127 0 .195-.154.116-.253Z"></path></g><defs><linearGradient id="svgIDb" x1="8.432" x2="8.432" y1="10.307" y2="24.821" gradientUnits="userSpaceOnUse"><stop stop-color="#29884D"></stop><stop offset="1" stop-color="#227341"></stop></linearGradient><linearGradient id="svgIDc" x1="6.242" x2="6.242" y1="24.977" y2="24.211" gradientUnits="userSpaceOnUse"><stop stop-color="#4E7978"></stop><stop offset="1" stop-color="#4E7978" stop-opacity="0"></stop></linearGradient><linearGradient id="svgIDj" x1="9.833" x2="11.082" y1="10.616" y2="10.616" gradientUnits="userSpaceOnUse"><stop stop-color="#8E694B"></stop><stop offset="1" stop-color="#8E694B" stop-opacity="0"></stop></linearGradient><linearGradient id="svgIDk" x1="12.278" x2="11.732" y1="11.598" y2="10.954" gradientUnits="userSpaceOnUse"><stop stop-color="#C77958"></stop><stop offset="1" stop-color="#C77958" stop-opacity="0"></stop></linearGradient><linearGradient id="svgIDl" x1="11.531" x2="11.531" y1="7.235" y2="7.375" gradientUnits="userSpaceOnUse"><stop stop-color="#D5AD80"></stop><stop offset="1" stop-color="#D5AD80" stop-opacity="0"></stop></linearGradient><linearGradient id="svgIDn" x1="9.492" x2="26.43" y1="20.993" y2="20.993" gradientUnits="userSpaceOnUse"><stop stop-color="#D7905F"></stop><stop offset="1" stop-color="#E8BC97"></stop></linearGradient><linearGradient id="svgIDo" x1="9.969" x2="16.606" y1="28.505" y2="18.939" gradientUnits="userSpaceOnUse"><stop stop-color="#BA8951"></stop><stop offset="1" stop-color="#BA8951" stop-opacity="0"></stop></linearGradient><linearGradient id="svgIDq" x1="26.929" x2="26.348" y1="23.764" y2="23.764" gradientUnits="userSpaceOnUse"><stop stop-color="#FFE6B1"></stop><stop offset="1" stop-color="#FFE6B1" stop-opacity="0"></stop></linearGradient><linearGradient id="svgIDs" x1="20.927" x2="20.537" y1="11.209" y2="11.599" gradientUnits="userSpaceOnUse"><stop stop-color="#B55852"></stop><stop offset="1" stop-color="#B55852" stop-opacity="0"></stop></linearGradient><linearGradient id="svgIDt" x1="8.723" x2="9.341" y1="25.702" y2="25.702" gradientUnits="userSpaceOnUse"><stop stop-color="#845F3D"></stop><stop offset="1" stop-color="#845F3D" stop-opacity="0"></stop></linearGradient><linearGradient id="svgIDv" x1="14.057" x2="14.057" y1="18.585" y2="28.032" gradientUnits="userSpaceOnUse"><stop stop-color="#805139"></stop><stop offset="1" stop-color="#6D4D2F"></stop></linearGradient><linearGradient id="svgIDy" x1="19.96" x2="25.275" y1="23.556" y2="18.259" gradientUnits="userSpaceOnUse"><stop stop-color="#4CCCFF"></stop><stop offset="1" stop-color="#3A9EE6"></stop></linearGradient><linearGradient id="svgIDz" x1="22.423" x2="22.423" y1="23.493" y2="22.524" gradientUnits="userSpaceOnUse"><stop stop-color="#1E9FE4"></stop><stop offset="1" stop-color="#1E9FE4" stop-opacity="0"></stop></linearGradient><linearGradient id="svgIDA" x1="19.96" x2="20.949" y1="21.932" y2="21.932" gradientUnits="userSpaceOnUse"><stop stop-color="#48E0FF"></stop><stop offset="1" stop-color="#48E0FF" stop-opacity="0"></stop></linearGradient><linearGradient id="svgIDB" x1="20.705" x2="21.368" y1="17.397" y2="19.385" gradientUnits="userSpaceOnUse"><stop stop-color="#43B3F2"></stop><stop offset="1" stop-color="#43B3F2" stop-opacity="0"></stop></linearGradient><linearGradient id="svgIDD" x1="11.47" x2="17.973" y1="23.743" y2="23.701" gradientUnits="userSpaceOnUse"><stop stop-color="#70504D"></stop><stop offset="1" stop-color="#9B665E"></stop></linearGradient><linearGradient id="svgIDG" x1="17.855" x2="17.855" y1="6.012" y2="18.585" gradientUnits="userSpaceOnUse"><stop stop-color="#EA6D2E"></stop><stop offset="1" stop-color="#CA222B"></stop></linearGradient><linearGradient id="svgIDH" x1="10.851" x2="18.438" y1="28.033" y2="28.033" gradientUnits="userSpaceOnUse"><stop stop-color="#9FA1A3"></stop><stop offset="1" stop-color="#C4C1C7"></stop></linearGradient><linearGradient id="svgIDI" x1="10.497" x2="11.463" y1="28.033" y2="28.033" gradientUnits="userSpaceOnUse"><stop stop-color="#59675C"></stop><stop offset="1" stop-color="#59675C" stop-opacity="0"></stop></linearGradient><linearGradient id="svgIDJ" x1="18.733" x2="17.836" y1="27.557" y2="28.033" gradientUnits="userSpaceOnUse"><stop stop-color="#C8CAC6"></stop><stop offset="1" stop-color="#C8CAC6" stop-opacity="0"></stop></linearGradient><linearGradient id="svgIDL" x1="16" x2="16" y1="30.583" y2="29.04" gradientUnits="userSpaceOnUse"><stop offset=".107" stop-color="#3FD17B"></stop><stop offset="1" stop-color="#3FD17B" stop-opacity="0"></stop></linearGradient><linearGradient id="svgIDP" x1="23.04" x2="23.04" y1="30.654" y2="28.592" gradientUnits="userSpaceOnUse"><stop stop-color="#3B8478"></stop><stop offset="1" stop-color="#3B8478" stop-opacity="0"></stop></linearGradient><linearGradient id="svgIDU" x1="17.712" x2="29.221" y1="6.651" y2="18.501" gradientUnits="userSpaceOnUse"><stop stop-color="#FF8337"></stop><stop offset="1" stop-color="#F24747"></stop></linearGradient><linearGradient id="svgIDW" x1="18.371" x2="6.862" y1="6.651" y2="18.501" gradientUnits="userSpaceOnUse"><stop stop-color="#FF8337"></stop><stop offset="1" stop-color="#F24747"></stop></linearGradient><filter id="svgIDa" width="10.915" height="14.713" x="3.074" y="10.307" filterUnits="userSpaceOnUse"><feFlood flood-opacity="0" result="BackgroundImageFix"></feFlood><feBlend in="SourceGraphic" in2="BackgroundImageFix" result="shape"></feBlend><feColorMatrix in="SourceAlpha" result="hardAlpha" values="0 0 0 0 0 0 0 0 0 0 0 0 0 0 0 0 0 0 127 0"></feColorMatrix><feOffset dx=".2" dy=".2"></feOffset><feGaussianBlur stdDeviation=".5"></feGaussianBlur><feComposite in2="hardAlpha" k2="-1" k3="1" operator="arithmetic"></feComposite><feColorMatrix values="0 0 0 0 0.301961 0 0 0 0 0.592157 0 0 0 0 0.392157 0 0 0 1 0"></feColorMatrix><feBlend in2="shape" result="effect1_innerShadow_18_6052"></feBlend></filter><filter id="svgIDe" width="6.472" height="7.033" x="2.655" y="18.352" filterUnits="userSpaceOnUse"><feFlood flood-opacity="0" result="BackgroundImageFix"></feFlood><feBlend in="SourceGraphic" in2="BackgroundImageFix" result="shape"></feBlend><feGaussianBlur result="effect1_foregroundBlur_18_6052" stdDeviation=".5"></feGaussianBlur></filter><filter id="svgIDg" width="6.848" height="6.657" x="3.407" y="13.032" filterUnits="userSpaceOnUse"><feFlood flood-opacity="0" result="BackgroundImageFix"></feFlood><feBlend in="SourceGraphic" in2="BackgroundImageFix" result="shape"></feBlend><feGaussianBlur result="effect1_foregroundBlur_18_6052" stdDeviation=".5"></feGaussianBlur></filter><filter id="svgIDu" width="6.831" height="10.448" x="10.642" y="18.085" filterUnits="userSpaceOnUse"><feFlood flood-opacity="0" result="BackgroundImageFix"></feFlood><feBlend in="SourceGraphic" in2="BackgroundImageFix" result="shape"></feBlend><feGaussianBlur result="effect1_foregroundBlur_18_6052" stdDeviation=".25"></feGaussianBlur></filter><filter id="svgIDw" width="9.101" height="1.951" x="9.79" y="26.934" filterUnits="userSpaceOnUse"><feFlood flood-opacity="0" result="BackgroundImageFix"></feFlood><feBlend in="SourceGraphic" in2="BackgroundImageFix" result="shape"></feBlend><feGaussianBlur result="effect1_foregroundBlur_18_6052" stdDeviation=".25"></feGaussianBlur></filter><filter id="svgIDx" width="5.425" height="5.425" x="19.46" y="18.259" filterUnits="userSpaceOnUse"><feFlood flood-opacity="0" result="BackgroundImageFix"></feFlood><feBlend in="SourceGraphic" in2="BackgroundImageFix" result="shape"></feBlend><feColorMatrix in="SourceAlpha" result="hardAlpha" values="0 0 0 0 0 0 0 0 0 0 0 0 0 0 0 0 0 0 127 0"></feColorMatrix><feOffset dx="-.5" dy=".5"></feOffset><feGaussianBlur stdDeviation=".25"></feGaussianBlur><feComposite in2="hardAlpha" k2="-1" k3="1" operator="arithmetic"></feComposite><feColorMatrix values="0 0 0 0 0.0470588 0 0 0 0 0.47451 0 0 0 0 0.792157 0 0 0 1 0"></feColorMatrix><feBlend in2="shape" result="effect1_innerShadow_18_6052"></feBlend></filter><filter id="svgIDC" width="6.953" height="8.956" x="11.27" y="18.125" filterUnits="userSpaceOnUse"><feFlood flood-opacity="0" result="BackgroundImageFix"></feFlood><feBlend in="SourceGraphic" in2="BackgroundImageFix" result="shape"></feBlend><feColorMatrix in="SourceAlpha" result="hardAlpha" values="0 0 0 0 0 0 0 0 0 0 0 0 0 0 0 0 0 0 127 0"></feColorMatrix><feOffset dx=".25"></feOffset><feGaussianBlur stdDeviation=".25"></feGaussianBlur><feComposite in2="hardAlpha" k2="-1" k3="1" operator="arithmetic"></feComposite><feColorMatrix values="0 0 0 0 0.254902 0 0 0 0 0.188235 0 0 0 0 0.141176 0 0 0 1 0"></feColorMatrix><feBlend in2="shape" result="effect1_innerShadow_18_6052"></feBlend><feColorMatrix in="SourceAlpha" result="hardAlpha" values="0 0 0 0 0 0 0 0 0 0 0 0 0 0 0 0 0 0 127 0"></feColorMatrix><feOffset dx="-.2"></feOffset><feGaussianBlur stdDeviation=".15"></feGaussianBlur><feComposite in2="hardAlpha" k2="-1" k3="1" operator="arithmetic"></feComposite><feColorMatrix values="0 0 0 0 0.694118 0 0 0 0 0.470588 0 0 0 0 0.407843 0 0 0 1 0"></feColorMatrix><feBlend in2="effect1_innerShadow_18_6052" result="effect2_innerShadow_18_6052"></feBlend></filter><filter id="svgIDE" width="1.237" height="1.237" x="15.726" y="22.142" filterUnits="userSpaceOnUse"><feFlood flood-opacity="0" result="BackgroundImageFix"></feFlood><feBlend in="SourceGraphic" in2="BackgroundImageFix" result="shape"></feBlend><feGaussianBlur result="effect1_foregroundBlur_18_6052" stdDeviation=".075"></feGaussianBlur></filter><filter id="svgIDF" width="1.146" height=".946" x="15.892" y="22.212" filterUnits="userSpaceOnUse"><feFlood flood-opacity="0" result="BackgroundImageFix"></feFlood><feBlend in="SourceGraphic" in2="BackgroundImageFix" result="shape"></feBlend><feColorMatrix in="SourceAlpha" result="hardAlpha" values="0 0 0 0 0 0 0 0 0 0 0 0 0 0 0 0 0 0 127 0"></feColorMatrix><feOffset dx="-.1"></feOffset><feGaussianBlur stdDeviation=".1"></feGaussianBlur><feComposite in2="hardAlpha" k2="-1" k3="1" operator="arithmetic"></feComposite><feColorMatrix values="0 0 0 0 0.694118 0 0 0 0 0.482353 0 0 0 0 0.419608 0 0 0 1 0"></feColorMatrix><feBlend in2="shape" result="effect1_innerShadow_18_6052"></feBlend><feColorMatrix in="SourceAlpha" result="hardAlpha" values="0 0 0 0 0 0 0 0 0 0 0 0 0 0 0 0 0 0 127 0"></feColorMatrix><feOffset dx=".1"></feOffset><feGaussianBlur stdDeviation=".1"></feGaussianBlur><feComposite in2="hardAlpha" k2="-1" k3="1" operator="arithmetic"></feComposite><feColorMatrix values="0 0 0 0 0.290196 0 0 0 0 0.184314 0 0 0 0 0.164706 0 0 0 1 0"></feColorMatrix><feBlend in2="effect1_innerShadow_18_6052" result="effect2_innerShadow_18_6052"></feBlend></filter><filter id="svgIDK" width="28.348" height="2.016" x="2.076" y="28.033" filterUnits="userSpaceOnUse"><feFlood flood-opacity="0" result="BackgroundImageFix"></feFlood><feBlend in="SourceGraphic" in2="BackgroundImageFix" result="shape"></feBlend><feColorMatrix in="SourceAlpha" result="hardAlpha" values="0 0 0 0 0 0 0 0 0 0 0 0 0 0 0 0 0 0 127 0"></feColorMatrix><feOffset dx=".5"></feOffset><feGaussianBlur stdDeviation=".5"></feGaussianBlur><feComposite in2="hardAlpha" k2="-1" k3="1" operator="arithmetic"></feComposite><feColorMatrix values="0 0 0 0 0.25098 0 0 0 0 0.545098 0 0 0 0 0.352941 0 0 0 1 0"></feColorMatrix><feBlend in2="shape" result="effect1_innerShadow_18_6052"></feBlend></filter><filter id="svgIDO" width="8.172" height="6.152" x="19.96" y="24.096" filterUnits="userSpaceOnUse"><feFlood flood-opacity="0" result="BackgroundImageFix"></feFlood><feBlend in="SourceGraphic" in2="BackgroundImageFix" result="shape"></feBlend><feColorMatrix in="SourceAlpha" result="hardAlpha" values="0 0 0 0 0 0 0 0 0 0 0 0 0 0 0 0 0 0 127 0"></feColorMatrix><feOffset dx=".2" dy=".2"></feOffset><feGaussianBlur stdDeviation=".3"></feGaussianBlur><feComposite in2="hardAlpha" k2="-1" k3="1" operator="arithmetic"></feComposite><feColorMatrix values="0 0 0 0 0.309804 0 0 0 0 0.564706 0 0 0 0 0.329412 0 0 0 1 0"></feColorMatrix><feBlend in2="shape" result="effect1_innerShadow_18_6052"></feBlend></filter><filter id="svgIDT" width="12.23" height="12.066" x="17.291" y="6.065" filterUnits="userSpaceOnUse"><feFlood flood-opacity="0" result="BackgroundImageFix"></feFlood><feBlend in="SourceGraphic" in2="BackgroundImageFix" result="shape"></feBlend><feGaussianBlur result="effect1_foregroundBlur_18_6052" stdDeviation=".3"></feGaussianBlur></filter><filter id="svgIDV" width="12.23" height="12.066" x="6.561" y="6.065" filterUnits="userSpaceOnUse"><feFlood flood-opacity="0" result="BackgroundImageFix"></feFlood><feBlend in="SourceGraphic" in2="BackgroundImageFix" result="shape"></feBlend><feGaussianBlur result="effect1_foregroundBlur_18_6052" stdDeviation=".3"></feGaussianBlur></filter><filter id="svgIDX" width="3.828" height="4.063" x="20.179" y="26.204" filterUnits="userSpaceOnUse"><feFlood flood-opacity="0" result="BackgroundImageFix"></feFlood><feBlend in="SourceGraphic" in2="BackgroundImageFix" result="shape"></feBlend><feGaussianBlur result="effect1_foregroundBlur_18_6052" stdDeviation=".375"></feGaussianBlur></filter><radialGradient id="svgIDd" cx="0" cy="0" r="1" gradientTransform="matrix(0 2.81682 -2.62539 0 10.204 9.57)" gradientUnits="userSpaceOnUse"><stop offset=".097" stop-color="#4DB56F"></stop><stop offset="1" stop-color="#4DB56F" stop-opacity="0"></stop></radialGradient><radialGradient id="svgIDf" cx="0" cy="0" r="1" gradientTransform="matrix(3.98289 -.7388 1.23623 6.66453 5.017 22.274)" gradientUnits="userSpaceOnUse"><stop stop-color="#279D5A"></stop><stop offset="1" stop-color="#279D5A" stop-opacity="0"></stop></radialGradient><radialGradient id="svgIDh" cx="0" cy="0" r="1" gradientTransform="matrix(3.01153 -.52625 .88784 5.08076 5.312 16.436)" gradientUnits="userSpaceOnUse"><stop stop-color="#2EA75B"></stop><stop offset="1" stop-color="#2EA75B" stop-opacity="0"></stop></radialGradient><radialGradient id="svgIDi" cx="0" cy="0" r="1" gradientTransform="matrix(0 3.83317 -1.9031 0 12.62 7.765)" gradientUnits="userSpaceOnUse"><stop stop-color="#FFD1A3"></stop><stop offset="1" stop-color="#DFA276"></stop></radialGradient><radialGradient id="svgIDm" cx="0" cy="0" r="1" gradientTransform="matrix(-2.06764 0 0 -.44445 13.374 7.436)" gradientUnits="userSpaceOnUse"><stop stop-color="#FFE9B1"></stop><stop offset="1" stop-color="#FFE9B1" stop-opacity="0"></stop></radialGradient><radialGradient id="svgIDp" cx="0" cy="0" r="1" gradientTransform="rotate(-117.235 19.026 7.176) scale(3.17675 3.84262)" gradientUnits="userSpaceOnUse"><stop stop-color="#BEAB75"></stop><stop offset="1" stop-color="#BEAB75" stop-opacity="0"></stop></radialGradient><radialGradient id="svgIDr" cx="0" cy="0" r="1" gradientTransform="matrix(0 3.96174 -.83806 0 27.143 16.07)" gradientUnits="userSpaceOnUse"><stop offset=".35" stop-color="#9E413E"></stop><stop offset="1" stop-color="#9E413E" stop-opacity="0"></stop></radialGradient><radialGradient id="svgIDM" cx="0" cy="0" r="1" gradientTransform="matrix(-1.1875 1.5147 -1.91085 -1.49808 20.774 29.04)" gradientUnits="userSpaceOnUse"><stop offset=".171" stop-color="#228051"></stop><stop offset="1" stop-color="#228051" stop-opacity="0"></stop></radialGradient><radialGradient id="svgIDN" cx="0" cy="0" r="1" gradientTransform="rotate(147.147 10.873 18.282) scale(3.34109 5.47856)" gradientUnits="userSpaceOnUse"><stop stop-color="#5CEE92"></stop><stop offset="1" stop-color="#5CEE92" stop-opacity="0"></stop></radialGradient><radialGradient id="svgIDQ" cx="0" cy="0" r="1" gradientTransform="matrix(-2.36256 -6.3769 2.90477 -1.07618 25.028 33.022)" gradientUnits="userSpaceOnUse"><stop stop-color="#2C785B"></stop><stop offset="1" stop-color="#2C785B" stop-opacity="0"></stop></radialGradient><radialGradient id="svgIDR" cx="0" cy="0" r="1" gradientTransform="matrix(-5.97354 4.64827 -6.2916 -8.0854 26.046 26.184)" gradientUnits="userSpaceOnUse"><stop offset=".641" stop-color="#2C785B" stop-opacity="0"></stop><stop offset=".966" stop-color="#2C785B"></stop></radialGradient><radialGradient id="svgIDS" cx="0" cy="0" r="1" gradientTransform="rotate(148.884 10.26 16.632) scale(4.31431 4.10712)" gradientUnits="userSpaceOnUse"><stop stop-color="#60FB9A"></stop><stop offset="1" stop-color="#60FB9A" stop-opacity="0"></stop></radialGradient></defs></g></svg>